<svg width="720" height="144" xmlns="http://www.w3.org/2000/svg" xmlns:xlink="http://www.w3.org/1999/xlink" overflow="hidden"><defs><clipPath id="clip0"><rect x="0" y="0" width="720" height="144"/></clipPath></defs><g clip-path="url(#clip0)"><rect x="0" y="0" width="720" height="144" fill="#FFFFFF"/><path d="M0 48 55.0001 48 55.0001 96 0 96 0 48" fill="#F4F3F5" fill-rule="evenodd"/><text font-family="Segoe UI Semibold,Segoe UI Semibold_MSFontService,Arial" font-weight="600" font-size="6" transform="translate(3.8421 57)">Off White</text><text font-family="Segoe UI Semibold,Segoe UI Semibold_MSFontService,Arial" font-weight="600" font-size="6" transform="translate(3.8421 67)">R244 G243 B245</text><text font-family="Segoe UI Black,Segoe UI Black_MSFontService,Arial" font-weight="900" font-size="20" transform="translate(3.8421 88)">A</text><path d="M554 96 609 96 609 144 554 144 554 96" fill="#225B62" fill-rule="evenodd"/><text fill="#FFFFFF" font-family="Segoe UI Semibold,Segoe UI Semibold_MSFontService,Arial" font-weight="600" font-size="6" transform="translate(557.686 105)">Dark Teal</text><text fill="#FFFFFF" font-family="Segoe UI Semibold,Segoe UI Semibold_MSFontService,Arial" font-weight="600" font-size="6" transform="translate(557.686 115)">R34 G91 B98</text><text fill="#FFFFFF" font-family="Segoe UI Black,Segoe UI Black_MSFontService,Arial" font-weight="900" font-size="20" transform="translate(557.686 137)">A</text><path d="M609 96 665 96 665 144 609 144 609 96" fill="#07641D" fill-rule="evenodd"/><text fill="#FFFFFF" font-family="Segoe UI Semibold,Segoe UI Semibold_MSFontService,Arial" font-weight="600" font-size="6" transform="translate(613.069 105)">Dark Green</text><text fill="#FFFFFF" font-family="Segoe UI Semibold,Segoe UI Semibold_MSFontService,Arial" font-weight="600" font-size="6" transform="translate(613.069 115)">R7 G100 B29</text><text fill="#FFFFFF" font-family="Segoe UI Black,Segoe UI Black_MSFontService,Arial" font-weight="900" font-size="20" transform="translate(613.069 137)">A</text><path d="M665 96 720 96 720 144 665 144 665 96" fill="#291817" fill-rule="evenodd"/><text fill="#FFFFFF" font-family="Segoe UI Semibold,Segoe UI Semibold_MSFontService,Arial" font-weight="600" font-size="6" transform="translate(668.457 105)">Brown Black</text><text fill="#FFFFFF" font-family="Segoe UI Semibold,Segoe UI Semibold_MSFontService,Arial" font-weight="600" font-size="6" transform="translate(668.457 115)">R41 G24 B23</text><text fill="#FFFFFF" font-family="Segoe UI Black,Segoe UI Black_MSFontService,Arial" font-weight="900" font-size="20" transform="translate(668.457 137)">A</text><path d="M443 96 498 96 498 144 443 144 443 96" fill="#463668" fill-rule="evenodd"/><text fill="#FFFFFF" font-family="Segoe UI Semibold,Segoe UI Semibold_MSFontService,Arial" font-weight="600" font-size="6" transform="translate(446.916 105)">Dark Purple</text><text fill="#FFFFFF" font-family="Segoe UI Semibold,Segoe UI Semibold_MSFontService,Arial" font-weight="600" font-size="6" transform="translate(446.916 115)">R70 G54 B104</text><text fill="#FFFFFF" font-family="Segoe UI Black,Segoe UI Black_MSFontService,Arial" font-weight="900" font-size="20" transform="translate(446.916 137)">A</text><path d="M498 96 554 96 554 144 498 144 498 96" fill="#2A446F" fill-rule="evenodd"/><text fill="#FFFFFF" font-family="Segoe UI Semibold,Segoe UI Semibold_MSFontService,Arial" font-weight="600" font-size="6" transform="translate(502.303 105)">Dark Blue</text><text fill="#FFFFFF" font-family="Segoe UI Semibold,Segoe UI Semibold_MSFontService,Arial" font-weight="600" font-size="6" transform="translate(502.303 115)">R42 G68 B111</text><text fill="#FFFFFF" font-family="Segoe UI Black,Segoe UI Black_MSFontService,Arial" font-weight="900" font-size="20" transform="translate(502.303 137)">A</text><path d="M277 96 332 96 332 144 277 144 277 96" fill="#73391D" fill-rule="evenodd"/><text fill="#FFFFFF" font-family="Segoe UI Semibold,Segoe UI Semibold_MSFontService,Arial" font-weight="600" font-size="6" transform="translate(280.762 105)">Dark Orange</text><text fill="#FFFFFF" font-family="Segoe UI Semibold,Segoe UI Semibold_MSFontService,Arial" font-weight="600" font-size="6" transform="translate(280.762 115)">R115 G57 B29</text><text fill="#FFFFFF" font-family="Segoe UI Black,Segoe UI Black_MSFontService,Arial" font-weight="900" font-size="20" transform="translate(280.762 137)">A</text><path d="M332 96 388 96 388 144 332 144 332 96" fill="#73262F" fill-rule="evenodd"/><text fill="#FFFFFF" font-family="Segoe UI Semibold,Segoe UI Semibold_MSFontService,Arial" font-weight="600" font-size="6" transform="translate(336.15 105)">Dark Red</text><text fill="#FFFFFF" font-family="Segoe UI Semibold,Segoe UI Semibold_MSFontService,Arial" font-weight="600" font-size="6" transform="translate(336.15 115)">R115 G38 B47</text><text fill="#FFFFFF" font-family="Segoe UI Black,Segoe UI Black_MSFontService,Arial" font-weight="900" font-size="20" transform="translate(336.15 137)">A</text><path d="M388 96 443 96 443 144 388 144 388 96" fill="#702573" fill-rule="evenodd"/><text fill="#FFFFFF" font-family="Segoe UI Semibold,Segoe UI Semibold_MSFontService,Arial" font-weight="600" font-size="6" transform="translate(391.533 105)">Dark Magenta</text><text fill="#FFFFFF" font-family="Segoe UI Semibold,Segoe UI Semibold_MSFontService,Arial" font-weight="600" font-size="6" transform="translate(391.533 115)">R112 G37 B115</text><text fill="#FFFFFF" font-family="Segoe UI Black,Segoe UI Black_MSFontService,Arial" font-weight="900" font-size="20" transform="translate(391.533 137)">A</text><path d="M222 96 277 96 277 144 222 144 222 96" fill="#7F5A1A" fill-rule="evenodd"/><text fill="#FFFFFF" font-family="Segoe UI Semibold,Segoe UI Semibold_MSFontService,Arial" font-weight="600" font-size="6" transform="translate(225.379 105)">Dark Yellow</text><text fill="#FFFFFF" font-family="Segoe UI Semibold,Segoe UI Semibold_MSFontService,Arial" font-weight="600" font-size="6" transform="translate(225.379 115)">R127 G90 B26</text><text fill="#FFFFFF" font-family="Segoe UI Black,Segoe UI Black_MSFontService,Arial" font-weight="900" font-size="20" transform="translate(225.379 137)">A</text><path d="M166 96 222 96 222 144 166 144 166 96" fill="#5C4738" fill-rule="evenodd"/><text fill="#FFFFFF" font-family="Segoe UI Semibold,Segoe UI Semibold_MSFontService,Arial" font-weight="600" font-size="6" transform="translate(169.996 105)">Dark Brown</text><text fill="#FFFFFF" font-family="Segoe UI Semibold,Segoe UI Semibold_MSFontService,Arial" font-weight="600" font-size="6" transform="translate(169.996 115)">R92 G71 B56</text><text fill="#FFFFFF" font-family="Segoe UI Black,Segoe UI Black_MSFontService,Arial" font-weight="900" font-size="20" transform="translate(169.996 137)">A</text><path d="M111 96 166 96 166 144 111 144 111 96" fill="#454142" fill-rule="evenodd"/><text fill="#FFFFFF" font-family="Segoe UI Semibold,Segoe UI Semibold_MSFontService,Arial" font-weight="600" font-size="6" transform="translate(114.613 105)">Dark Gray</text><text fill="#FFFFFF" font-family="Segoe UI Semibold,Segoe UI Semibold_MSFontService,Arial" font-weight="600" font-size="6" transform="translate(114.613 115)">R69 G65 B66</text><text fill="#FFFFFF" font-family="Segoe UI Black,Segoe UI Black_MSFontService,Arial" font-weight="900" font-size="20" transform="translate(114.613 137)">A</text><path d="M55 96 111 96 111 144 55 144 55 96" fill="#8C8279" fill-rule="evenodd"/><text font-family="Segoe UI Semibold,Segoe UI Semibold_MSFontService,Arial" font-weight="600" font-size="6" transform="translate(59.2253 105)">Warm Gray</text><text font-family="Segoe UI Semibold,Segoe UI Semibold_MSFontService,Arial" font-weight="600" font-size="6" transform="translate(59.2253 115)">R140 G130 B121</text><text font-family="Segoe UI Black,Segoe UI Black_MSFontService,Arial" font-weight="900" font-size="20" transform="translate(59.2253 137)">A</text><path d="M0 96 55.0001 96 55.0001 144 0 144 0 96" fill="#FFF8F3" fill-rule="evenodd"/><text font-family="Segoe UI Semibold,Segoe UI Semibold_MSFontService,Arial" font-weight="600" font-size="6" transform="translate(3.84 105)">Warm White</text><text font-family="Segoe UI Semibold,Segoe UI Semibold_MSFontService,Arial" font-weight="600" font-size="6" transform="translate(3.84 115)">R255 G248 B243</text><text font-family="Segoe UI Black,Segoe UI Black_MSFontService,Arial" font-weight="900" font-size="20" transform="translate(3.84 137)">A</text><path d="M665 48 720 48 720 96 665 96 665 48" fill-rule="evenodd"/><text fill="#FFFFFF" font-family="Segoe UI Semibold,Segoe UI Semibold_MSFontService,Arial" font-weight="600" font-size="6" transform="translate(668.457 57)">Pure Black</text><text fill="#FFFFFF" font-family="Segoe UI Semibold,Segoe UI Semibold_MSFontService,Arial" font-weight="600" font-size="6" transform="translate(668.457 67)">R0 G0 B0</text><text fill="#FFFFFF" font-family="Segoe UI Black,Segoe UI Black_MSFontService,Arial" font-weight="900" font-size="20" transform="translate(668.457 88)">A</text><path d="M609 48 665 48 665 96 609 96 609 48" fill="#8DE971" fill-rule="evenodd"/><text font-family="Segoe UI Semibold,Segoe UI Semibold_MSFontService,Arial" font-weight="600" font-size="6" transform="translate(613.07 57)">Green</text><text font-family="Segoe UI Semibold,Segoe UI Semibold_MSFontService,Arial" font-weight="600" font-size="6" transform="translate(613.07 67)">R141 G233 B113</text><text font-family="Segoe UI Black,Segoe UI Black_MSFontService,Arial" font-weight="900" font-size="20" transform="translate(613.07 88)">A</text><path d="M554 48 609 48 609 96 554 96 554 48" fill="#49C5B1" fill-rule="evenodd"/><text font-family="Segoe UI Semibold,Segoe UI Semibold_MSFontService,Arial" font-weight="600" font-size="6" transform="translate(557.686 57)">Teal</text><text font-family="Segoe UI Semibold,Segoe UI Semibold_MSFontService,Arial" font-weight="600" font-size="6" transform="translate(557.686 67)">R73 G197 B177</text><text font-family="Segoe UI Black,Segoe UI Black_MSFontService,Arial" font-weight="900" font-size="20" transform="translate(557.686 88)">A</text><path d="M554 0 609 0 609 48 554 48 554 0" fill="#B9DCD2" fill-rule="evenodd"/><text font-family="Segoe UI Semibold,Segoe UI Semibold_MSFontService,Arial" font-weight="600" font-size="6" transform="translate(557.686 9)">Light Teal</text><text font-family="Segoe UI Semibold,Segoe UI Semibold_MSFontService,Arial" font-weight="600" font-size="6" transform="translate(557.686 19)">R185 G220 B210</text><text font-family="Segoe UI Black,Segoe UI Black_MSFontService,Arial" font-weight="900" font-size="20" transform="translate(557.686 40)">A</text><path d="M498 48 554 48 554 96 498 96 498 48" fill="#0078D4" fill-rule="evenodd"/><text fill="#FFFFFF" font-family="Segoe UI Semibold,Segoe UI Semibold_MSFontService,Arial" font-weight="600" font-size="6" transform="translate(502.303 57)">Blue</text><text fill="#FFFFFF" font-family="Segoe UI Semibold,Segoe UI Semibold_MSFontService,Arial" font-weight="600" font-size="6" transform="translate(502.303 67)">R0 G120 B212</text><text fill="#FFFFFF" font-family="Segoe UI Black,Segoe UI Black_MSFontService,Arial" font-weight="900" font-size="20" transform="translate(502.303 88)">A</text><path d="M443 48 498 48 498 96 443 96 443 48" fill="#8661C5" fill-rule="evenodd"/><text fill="#FFFFFF" font-family="Segoe UI Semibold,Segoe UI Semibold_MSFontService,Arial" font-weight="600" font-size="6" transform="translate(446.916 57)">Purple</text><text fill="#FFFFFF" font-family="Segoe UI Semibold,Segoe UI Semibold_MSFontService,Arial" font-weight="600" font-size="6" transform="translate(446.916 67)">R134 G97 B197</text><text font-family="Segoe UI Black,Segoe UI Black_MSFontService,Arial" font-weight="900" font-size="20" transform="translate(446.916 88)">A</text><text fill="#FFFFFF" font-family="Segoe UI Black,Segoe UI Black_MSFontService,Arial" font-weight="900" font-size="20" transform="translate(461.916 88)">A</text><path d="M388 48 443 48 443 96 388 96 388 48" fill="#C03BC4" fill-rule="evenodd"/><text font-family="Segoe UI Semibold,Segoe UI Semibold_MSFontService,Arial" font-weight="600" font-size="6" transform="translate(391.533 57)">Magenta</text><text font-family="Segoe UI Semibold,Segoe UI Semibold_MSFontService,Arial" font-weight="600" font-size="6" transform="translate(391.533 67)">R192 G59 B196</text><text font-family="Segoe UI Black,Segoe UI Black_MSFontService,Arial" font-weight="900" font-size="20" transform="translate(391.533 88)">A</text><text fill="#FFFFFF" font-family="Segoe UI Black,Segoe UI Black_MSFontService,Arial" font-weight="900" font-size="20" transform="translate(406.533 88)">A</text><path d="M332 48 388 48 388 96 332 96 332 48" fill="#F4364C" fill-rule="evenodd"/><text font-family="Segoe UI Semibold,Segoe UI Semibold_MSFontService,Arial" font-weight="600" font-size="6" transform="translate(336.15 57)">Red</text><text font-family="Segoe UI Semibold,Segoe UI Semibold_MSFontService,Arial" font-weight="600" font-size="6" transform="translate(336.15 67)">R244 G54 B76</text><text font-family="Segoe UI Black,Segoe UI Black_MSFontService,Arial" font-weight="900" font-size="20" transform="translate(336.15 88)">A</text><path d="M277 48 332 48 332 96 277 96 277 48" fill="#FF5C39" fill-rule="evenodd"/><text font-family="Segoe UI Semibold,Segoe UI Semibold_MSFontService,Arial" font-weight="600" font-size="6" transform="translate(280.762 57)">Orange</text><text font-family="Segoe UI Semibold,Segoe UI Semibold_MSFontService,Arial" font-weight="600" font-size="6" transform="translate(280.762 67)">R255 G92 B57</text><text font-family="Segoe UI Black,Segoe UI Black_MSFontService,Arial" font-weight="900" font-size="20" transform="translate(280.762 88)">A</text><path d="M222 48 277 48 277 96 222 96 222 48" fill="#FFB900" fill-rule="evenodd"/><text font-family="Segoe UI Semibold,Segoe UI Semibold_MSFontService,Arial" font-weight="600" font-size="6" transform="translate(225.379 57)">Yellow</text><text font-family="Segoe UI Semibold,Segoe UI Semibold_MSFontService,Arial" font-weight="600" font-size="6" transform="translate(225.379 67)">R255 G185 B0</text><text font-family="Segoe UI Black,Segoe UI Black_MSFontService,Arial" font-weight="900" font-size="20" transform="translate(225.379 88)">A</text><path d="M166 48 222 48 222 96 166 96 166 48" fill="#BF9474" fill-rule="evenodd"/><text font-family="Segoe UI Semibold,Segoe UI Semibold_MSFontService,Arial" font-weight="600" font-size="6" transform="translate(169.996 57)">Brown</text><text font-family="Segoe UI Semibold,Segoe UI Semibold_MSFontService,Arial" font-weight="600" font-size="6" transform="translate(169.996 67)">R191 G148 B116</text><text font-family="Segoe UI Black,Segoe UI Black_MSFontService,Arial" font-weight="900" font-size="20" transform="translate(169.996 88)">A</text><path d="M111 48 166 48 166 96 111 96 111 48" fill="#B1B3B3" fill-rule="evenodd"/><text font-family="Segoe UI Semibold,Segoe UI Semibold_MSFontService,Arial" font-weight="600" font-size="6" transform="translate(114.613 57)">Cool Gray</text><text font-family="Segoe UI Semibold,Segoe UI Semibold_MSFontService,Arial" font-weight="600" font-size="6" transform="translate(114.613 67)">R177 G179 B179</text><text font-family="Segoe UI Black,Segoe UI Black_MSFontService,Arial" font-weight="900" font-size="20" transform="translate(114.613 88)">A</text><path d="M55 48 111 48 111 96 55 96 55 48" fill="#D7D2CB" fill-rule="evenodd"/><text font-family="Segoe UI Semibold,Segoe UI Semibold_MSFontService,Arial" font-weight="600" font-size="6" transform="translate(59.2253 57)">Mid Gray</text><text font-family="Segoe UI Semibold,Segoe UI Semibold_MSFontService,Arial" font-weight="600" font-size="6" transform="translate(59.2253 67)">R215 G210 B203</text><text font-family="Segoe UI Black,Segoe UI Black_MSFontService,Arial" font-weight="900" font-size="20" transform="translate(59.2253 88)">A</text><path d="M665 0 720 0 720 48 665 48 665 0" fill="#091F2C" fill-rule="evenodd"/><text fill="#FFFFFF" font-family="Segoe UI Semibold,Segoe UI Semibold_MSFontService,Arial" font-weight="600" font-size="6" transform="translate(668.457 9)">Blue Black</text><text fill="#FFFFFF" font-family="Segoe UI Semibold,Segoe UI Semibold_MSFontService,Arial" font-weight="600" font-size="6" transform="translate(668.457 19)">R9 G31 B44</text><text fill="#FFFFFF" font-family="Segoe UI Black,Segoe UI Black_MSFontService,Arial" font-weight="900" font-size="20" transform="translate(668.457 40)">A</text><path d="M609 0 665 0 665 48 609 48 609 0" fill="#D4EC8E" fill-rule="evenodd"/><text font-family="Segoe UI Semibold,Segoe UI Semibold_MSFontService,Arial" font-weight="600" font-size="6" transform="translate(613.07 9)">Light Green</text><text font-family="Segoe UI Semibold,Segoe UI Semibold_MSFontService,Arial" font-weight="600" font-size="6" transform="translate(613.07 19)">R212 G236 B142</text><text font-family="Segoe UI Black,Segoe UI Black_MSFontService,Arial" font-weight="900" font-size="20" transform="translate(613.07 40)">A</text><path d="M498 0 554 0 554 48 498 48 498 0" fill="#8DC8E8" fill-rule="evenodd"/><text font-family="Segoe UI Semibold,Segoe UI Semibold_MSFontService,Arial" font-weight="600" font-size="6" transform="translate(502.303 9)">Light Blue</text><text font-family="Segoe UI Semibold,Segoe UI Semibold_MSFontService,Arial" font-weight="600" font-size="6" transform="translate(502.303 19)">R141 G200 B232</text><text font-family="Segoe UI Black,Segoe UI Black_MSFontService,Arial" font-weight="900" font-size="20" transform="translate(502.303 40)">A</text><path d="M443 0 498 0 498 48 443 48 443 0" fill="#C5B4E3" fill-rule="evenodd"/><text font-family="Segoe UI Semibold,Segoe UI Semibold_MSFontService,Arial" font-weight="600" font-size="6" transform="translate(446.916 9)">Light Purple</text><text font-family="Segoe UI Semibold,Segoe UI Semibold_MSFontService,Arial" font-weight="600" font-size="6" transform="translate(446.916 19)">R197 G180 B227</text><text font-family="Segoe UI Black,Segoe UI Black_MSFontService,Arial" font-weight="900" font-size="20" transform="translate(446.916 40)">A</text><path d="M388 0 443 0 443 48 388 48 388 0" fill="#D59ED7" fill-rule="evenodd"/><text font-family="Segoe UI Semibold,Segoe UI Semibold_MSFontService,Arial" font-weight="600" font-size="6" transform="translate(391.533 9)">Light Magenta</text><text font-family="Segoe UI Semibold,Segoe UI Semibold_MSFontService,Arial" font-weight="600" font-size="6" transform="translate(391.533 19)">R213 G158 B215</text><text font-family="Segoe UI Black,Segoe UI Black_MSFontService,Arial" font-weight="900" font-size="20" transform="translate(391.533 40)">A</text><path d="M332 0 388 0 388 48 332 48 332 0" fill="#FFB3BB" fill-rule="evenodd"/><text font-family="Segoe UI Semibold,Segoe UI Semibold_MSFontService,Arial" font-weight="600" font-size="6" transform="translate(336.15 9)">Light Red</text><text font-family="Segoe UI Semibold,Segoe UI Semibold_MSFontService,Arial" font-weight="600" font-size="6" transform="translate(336.15 19)">R255 G179 B187</text><text font-family="Segoe UI Black,Segoe UI Black_MSFontService,Arial" font-weight="900" font-size="20" transform="translate(336.15 40)">A</text><path d="M277 0 332 0 332 48 277 48 277 0" fill="#FFA38B" fill-rule="evenodd"/><text font-family="Segoe UI Semibold,Segoe UI Semibold_MSFontService,Arial" font-weight="600" font-size="6" transform="translate(280.762 9)">Light Orange</text><text font-family="Segoe UI Semibold,Segoe UI Semibold_MSFontService,Arial" font-weight="600" font-size="6" transform="translate(280.762 19)">R255 G163 B139</text><text font-family="Segoe UI Black,Segoe UI Black_MSFontService,Arial" font-weight="900" font-size="20" transform="translate(280.762 40)">A</text><path d="M0 0 55.0001 0 55.0001 48 0 48 0 0" fill="#FFFFFF" fill-rule="evenodd"/><text font-family="Segoe UI Semibold,Segoe UI Semibold_MSFontService,Arial" font-weight="600" font-size="6" transform="translate(3.8421 9)">Pure White</text><text font-family="Segoe UI Semibold,Segoe UI Semibold_MSFontService,Arial" font-weight="600" font-size="6" transform="translate(3.8421 19)">R255 G255 B255</text><text font-family="Segoe UI Black,Segoe UI Black_MSFontService,Arial" font-weight="900" font-size="20" transform="translate(3.8421 40)">A</text><path d="M111 0 166 0 166 48 111 48 111 0" fill="#D9D9D6" fill-rule="evenodd"/><text font-family="Segoe UI Semibold,Segoe UI Semibold_MSFontService,Arial" font-weight="600" font-size="6" transform="translate(114.613 9)">Light Gray</text><text font-family="Segoe UI Semibold,Segoe UI Semibold_MSFontService,Arial" font-weight="600" font-size="6" transform="translate(114.613 19)">R217 G217 B214</text><text font-family="Segoe UI Black,Segoe UI Black_MSFontService,Arial" font-weight="900" font-size="20" transform="translate(114.613 40)">A</text><path d="M55 0 111 0 111 48 55 48 55 0" fill="#E8E6DF" fill-rule="evenodd"/><text font-family="Segoe UI Semibold,Segoe UI Semibold_MSFontService,Arial" font-weight="600" font-size="6" transform="translate(59.2253 9)">Warm Light Gray</text><text font-family="Segoe UI Semibold,Segoe UI Semibold_MSFontService,Arial" font-weight="600" font-size="6" transform="translate(59.2253 19)">R232 G230 B223</text><text font-family="Segoe UI Black,Segoe UI Black_MSFontService,Arial" font-weight="900" font-size="20" transform="translate(59.2253 40)">A</text><path d="M166 0 222 0 222 48 166 48 166 0" fill="#E1D3C7" fill-rule="evenodd"/><text font-family="Segoe UI Semibold,Segoe UI Semibold_MSFontService,Arial" font-weight="600" font-size="6" transform="translate(169.996 9)">Light Brown</text><text font-family="Segoe UI Semibold,Segoe UI Semibold_MSFontService,Arial" font-weight="600" font-size="6" transform="translate(169.996 19)">R225 G211 B199</text><text font-family="Segoe UI Black,Segoe UI Black_MSFontService,Arial" font-weight="900" font-size="20" transform="translate(169.996 40)">A</text><path d="M222 0 277 0 277 48 222 48 222 0" fill="#FFE399" fill-rule="evenodd"/><text font-family="Segoe UI Semibold,Segoe UI Semibold_MSFontService,Arial" font-weight="600" font-size="6" transform="translate(225.379 9)">Light Yellow</text><text font-family="Segoe UI Semibold,Segoe UI Semibold_MSFontService,Arial" font-weight="600" font-size="6" transform="translate(225.379 19)">R255 G227 B153</text><text font-family="Segoe UI Black,Segoe UI Black_MSFontService,Arial" font-weight="900" font-size="20" transform="translate(225.379 40)">A</text></g></svg>